<svg width="710" height="102" viewBox="0 0 710 102" fill="none" xmlns="http://www.w3.org/2000/svg">
<path d="M460.319 55.067L479.774 26.3086L460.078 27.6378L461.528 19.3003L475.303 19.9648L489.138 19.2398L488.232 25.7044L468.717 54.5836L489.924 53.2545L488.715 61.592L474.155 60.9274L459.292 61.592L460.319 55.067Z" fill="black"/>
<path d="M66.8966 66.2795C63.2979 66.7159 60.1257 65.9849 57.3799 64.0864C54.6742 62.183 53.1249 59.612 52.7321 56.3732L48.5681 27.057L57.023 24.5102L59.2493 50.8966C59.5888 53.6956 60.4928 55.7971 61.9614 57.2014C63.4701 58.6008 65.5839 59.1356 68.3028 58.8058C71.0218 58.4761 72.8889 57.4787 73.9042 55.8138C74.9195 54.1489 75.2016 51.4572 74.7506 47.7386L71.1795 24.3148L79.3945 21.797L81.9353 48.267C82.5075 52.9852 81.3936 57.0153 78.5937 60.3573C75.7937 63.6993 71.8947 65.6733 66.8966 66.2795Z" fill="black"/>
<path d="M93.5884 49.2066C97.0121 52.6302 100.436 54.342 103.859 54.342C105.632 54.342 107.041 53.9392 108.088 53.1336C109.176 52.2878 109.72 51.2204 109.72 49.9316C109.72 48.6024 109.075 47.4947 107.786 46.6086C106.497 45.6822 104.927 44.8767 103.074 44.192C101.261 43.5072 99.4489 42.742 97.6364 41.8961C95.8239 41.01 94.2732 39.7614 92.9843 38.1503C91.6954 36.5392 91.0509 34.5857 91.0509 32.2899C91.0509 28.6649 92.5614 25.5433 95.5822 22.9253C98.603 20.2669 102.188 18.9378 106.336 18.9378C108.229 18.9378 110.062 19.1391 111.834 19.5419C113.607 19.9447 115.318 20.5287 116.97 21.294L112.861 30.1149C111.734 29.2287 110.183 28.4232 108.209 27.6982C106.276 26.9329 104.564 26.5503 103.074 26.5503C101.624 26.5503 100.436 26.9128 99.5093 27.6378C98.6232 28.3225 98.1801 29.2489 98.1801 30.4169C98.1801 31.585 98.8246 32.6322 100.113 33.5586C101.402 34.4447 102.953 35.2301 104.766 35.9149C106.618 36.5996 108.451 37.3649 110.263 38.2107C112.116 39.0163 113.687 40.2246 114.976 41.8357C116.265 43.4468 116.909 45.4003 116.909 47.6961C116.909 51.4823 115.399 54.8052 112.378 57.6649C109.357 60.4844 105.833 61.8941 101.805 61.8941C98.7843 61.8941 96.1058 61.1691 93.7697 59.7191C91.7155 58.4705 90.2655 57.3628 89.4197 56.3962L88.8759 55.7316L93.5884 49.2066Z" fill="black"/>
<path d="M149.84 76.6361L146.879 64.8548H132.439L129.237 76.334L121.504 75.7298L126.821 61.0485L134.917 35.0693L145.731 34.2839L153.525 60.1423L158.54 75.3069L149.84 76.6361ZM140.294 42.1381H139.508L134.312 58.4506H145.067L140.294 42.1381Z" fill="black"/>
<path d="M406.619 51.6099H407.223L416.044 28.6516L424.381 28.8932L424.623 54.8724L425.771 70.46H417.615L417.917 54.7516L417.252 38.862L410.002 58.8599L402.571 59.2224L395.804 38.862L395.26 54.7516L395.683 70.46H388.192L389.037 55.7787L389.4 29.8599L399.006 28.3495L406.619 51.6099Z" fill="black"/>
<path d="M181.86 42.4792L182.459 42.4051L188.396 18.5376L196.7 17.7542L200.128 43.5073L203.18 58.8361L195.086 59.8372L193.458 44.2105L190.848 28.5226L186.107 49.2592L178.777 50.531L169.562 31.155L170.973 46.9912L173.32 62.5289L165.885 63.4483L164.923 48.7743L162.102 23.0069L171.45 20.3289L181.86 42.4792Z" fill="black"/>
<path d="M596.629 51.8425L597.199 51.6434L597.96 27.0606L605.911 24.5407L614.702 48.9886L620.923 63.3267L613.223 66.015L608.331 51.0849L602.466 36.3022L602.212 57.5723L595.316 60.3639L582.217 43.3714L586.94 58.5524L592.517 73.2436L585.444 75.7128L581.404 61.5731L573.203 36.9832L581.775 32.3909L596.629 51.8425Z" fill="black"/>
<path d="M540.998 41.6361L541.598 41.5653L547.669 17.7318L555.978 16.9954L559.26 42.7675L562.226 58.1133L554.126 59.0685L552.586 43.4329L550.065 27.7305L545.207 48.4399L537.869 49.6703L528.765 30.2425L530.086 46.0864L532.345 61.6371L524.905 62.5146L524.026 47.8353L521.35 22.0524L530.713 19.4273L540.998 41.6361Z" fill="black"/>
<path d="M262.251 64.5859L262.976 49.9047L262.251 22.8984H284.907L284.243 29.363H270.649L270.286 40.0567H282.37L281.705 46.4609H270.045L269.984 48.8776L270.407 58.1818H285.028L284.364 64.5859H262.251Z" fill="black"/>
<path d="M633.248 69.0277L635.814 54.5542L638.491 27.6711L660.967 30.5206L659.495 36.8502L646.009 35.1406L644.305 45.7039L656.292 47.2235L654.827 53.4933L643.259 52.0268L642.895 54.4167L642.145 63.7002L656.65 65.539L655.185 71.8087L633.248 69.0277Z" fill="black"/>
<path d="M687.767 54.5322L684.334 54.8028L684.362 55.1641L686.319 70.767L678.248 71.403L677.818 56.7101L674.973 29.8442L688.043 28.8143C691.898 28.5106 695.052 29.3125 697.505 31.2201C699.958 33.1278 701.321 35.8082 701.593 39.2614C701.799 41.8713 701.305 44.3142 700.11 46.5901C698.953 48.8226 697.279 50.6515 695.088 52.0766L706.736 66.0673L699.742 70.3759L689.027 54.3723C688.749 54.4346 688.329 54.4879 687.767 54.5322ZM686.354 35.0684L683.403 35.301L684.054 48.9462L688.15 48.6235C690.157 48.4653 691.651 47.6809 692.631 46.2704C693.651 44.8568 694.064 42.9253 693.871 40.4759C693.558 36.5007 691.052 34.6982 686.354 35.0684Z" fill="black"/>
<path d="M325.139 16.904L324.353 43.004L325.018 57.3832L317.889 58.8937L299.885 29.7728V43.004L300.731 58.7124H293.178L293.903 44.0311L293.178 17.2061L300.428 16.8436L318.372 46.3874L317.768 17.8103L325.139 16.904Z" fill="black"/>
<path d="M374.734 36.4129L380.198 62.1339L384.658 77.2131L376.446 79.2359L373.639 64.8072L366.765 39.9311L374.734 36.4129Z" fill="black"/>
<path d="M228.677 55.1099L229.276 55.1943L241.219 33.6943L249.441 35.099L246.049 60.8569L245.007 76.4519L236.93 75.3118L239.425 59.7999L240.988 43.9734L231.014 62.7616L223.605 62.0818L219.751 40.9754L216.991 56.633L215.214 72.2463L207.796 71.1991L210.686 56.7802L214.668 31.1665L224.391 31.0137L228.677 55.1099Z" fill="black"/>
<path d="M19.0792 77.4115L28.2119 43.9137L9.99876 51.5278L8.68057 43.1685L21.9331 39.3521L34.7943 34.2011L36.0227 40.6122L26.8718 74.2439L46.5146 66.1424L48.0615 74.4238L34.0656 78.4935L20.2128 83.9189L19.0792 77.4115Z" fill="black"/>
<path d="M517.534 25.712L509.664 50.8019L506.147 66.1284L497.999 63.8581L502.638 49.9101L508.864 24.8643L517.534 25.712Z" fill="black"/>
</svg>
