<svg width="1440" height="723" viewBox="0 0 1440 723" fill="none" xmlns="http://www.w3.org/2000/svg">
<g opacity="0.5">
<path d="M368.5 312.5L594 272L589 167L469.5 184.5L420 245.5L368.5 312.5Z" fill="black" fill-opacity="0.5"/>
<path d="M127.5 323L208.5 197.5L472.5 184L369.5 312.5L127.5 323Z" fill="black" fill-opacity="0.5"/>
<path d="M193 365.5L200.5 470.5L51 483.5H0V328L193 320V365.5Z" fill="black" fill-opacity="0.5"/>
<path d="M246 136L311.5 63.5L110 70.5L1.5 82.5V208.5L205.5 200.5L246 136Z" fill="black" fill-opacity="0.5"/>
<path d="M243.5 135L207.5 198H243.5L333.5 189.5H406H454L468.5 184.5L527 116.5L580 50L541.5 53.5L500 50L454 53.5L371.5 61.5H310.5L243.5 135Z" fill="black" fill-opacity="0.5"/>
<path d="M471.5 182.5L581.5 51L695 150.5L471.5 182.5Z" fill="black" fill-opacity="0.5"/>
<path d="M696.5 152.5L711 165L657.5 263.5L591.5 274L587.5 165L696.5 152.5Z" fill="black" fill-opacity="0.5"/>
<path d="M370.5 312L193 320V394L200 471.5L381 464.5L542 429.5L540 282L370.5 312Z" fill="black" fill-opacity="0.5"/>
<path d="M596.5 371.5L656 264L537 279.5L540.5 426.5L598.5 412L596.5 371.5Z" fill="black" fill-opacity="0.5"/>
<path d="M381 464.5L149 475L160.5 669.5L242 664L393 661L566.5 603.5L560.5 544.5L538.5 428.5L381 464.5Z" fill="black" fill-opacity="0.5"/>
<path d="M536.5 428.5L600 410L609 587.5L564.5 603.5L560.5 547L536.5 428.5Z" fill="black" fill-opacity="0.5"/>
<path d="M748.5 101L664.5 247L818.5 252.5L923.5 245.5L973.5 167L1014 97H935L828 93L748.5 101Z" fill="black" fill-opacity="0.5"/>
<path d="M1013.5 95L923 245.5L1208.5 254.5L1231.5 200L1292 101.5L1013.5 95Z" fill="black" fill-opacity="0.5"/>
<path d="M784.5 248H665.5L612 340.5L598 371L667 375.5L718 371H849.5L922 244L887 248L826 251.5L784.5 248Z" fill="black" fill-opacity="0.5"/>
<path d="M895 295.5L847.5 370L1134.5 378.5L1207.5 254.5L919.5 245.5L895 295.5Z" fill="black" fill-opacity="0.5"/>
<path d="M1364.5 363C1302.17 368.833 1168.6 380.5 1133 380.5L1205 255.5L1312.5 242L1364.5 363Z" fill="black" fill-opacity="0.5"/>
<path d="M1364.5 361H1441V231L1314 243.5L1364.5 361Z" fill="black" fill-opacity="0.5"/>
<path d="M603.5 487L596.5 371H899.5V491L603.5 487Z" fill="black" fill-opacity="0.5"/>
<path d="M1137.5 438.5C1142.5 431 1139.5 382.5 1139.5 382.5L1365 363L1374 482.5L1139.5 498.5C1139.5 498.5 1132.5 446 1137.5 438.5Z" fill="black" fill-opacity="0.5"/>
<path d="M608.5 586L619 660.5L615.5 664L768 660.5L721 486H602L608.5 586Z" fill="black" fill-opacity="0.5"/>
<path d="M766 663H620L627 721.5H759L766 663Z" fill="black" fill-opacity="0.5"/>
<path d="M936 662.5L944 721.5H758L764.5 662.5H936Z" fill="black" fill-opacity="0.5"/>
<path d="M1029 662.5V721.5H946L939 662.5H1029Z" fill="black" fill-opacity="0.5"/>
<path d="M1393.5 634H1440.5V458.5L1374 481.5L1380 563L1393.5 634Z" fill="black" fill-opacity="0.5"/>
<path d="M1149 660.5V722.5H1396L1391.5 637.5L1149 660.5Z" fill="black" fill-opacity="0.5"/>
<path d="M1139 478L1149.5 721.5H1026.5V572L1009.5 375.5L1139 380.5V478Z" fill="black" fill-opacity="0.5"/>
<path d="M721.5 489L767.5 662H1026V585L1018 489H721.5Z" fill="black" fill-opacity="0.5"/>
<path d="M1392.5 634H1441V722.5H1397.5L1392.5 634Z" fill="black" fill-opacity="0.5"/>
<path d="M1374.5 481.5L1441.5 457V360L1363.5 363.5L1374.5 481.5Z" fill="black" fill-opacity="0.5"/>
<path d="M160.5 666L0.5 673V722H251L244 666H160.5Z" fill="black" fill-opacity="0.5"/>
</g>
</svg>
