<svg width="1440" height="719" viewBox="0 0 1440 719" fill="none" xmlns="http://www.w3.org/2000/svg">
<g opacity="0.5">
<path d="M77.5 199.5L0 205V325.5L127 319L158 277.5L205.5 195.5H115.5L77.5 199.5Z" fill="black" fill-opacity="0.5"/>
<path d="M48 480.5H0.5V667L159.5 663L150 470L48 480.5Z" fill="black" fill-opacity="0.5"/>
<path d="M393 657.5H241.5L250 718.5H624.5V685L607 584.5L393 657.5Z" fill="black" fill-opacity="0.5"/>
<path d="M1440 205L1284 104.5L1240 175.5L1208.5 250.5L1440 227.5V205Z" fill="black" fill-opacity="0.5"/>
<path d="M1138 495.5L1148 655L1392.5 632.5L1381.5 575L1373.5 478.5L1138 495.5Z" fill="black" fill-opacity="0.5"/>
</g>
</svg>
