<svg width="1440" height="723" viewBox="0 0 1440 723" fill="none" xmlns="http://www.w3.org/2000/svg">
<g opacity="0.5">
<path d="M243.5 135L207.5 198H243.5L333.5 189.5H406H454L468.5 184.5L527 116.5L580 50L541.5 53.5L500 50L454 53.5L371.5 61.5H310.5L243.5 135Z" fill="black" fill-opacity="0.5"/>
<path d="M471.5 182.5L581.5 51L695 150.5L471.5 182.5Z" fill="black" fill-opacity="0.5"/>
<path d="M381 464.5L149 475L160.5 669.5L242 664L393 661L566.5 603.5L560.5 544.5L538.5 428.5L381 464.5Z" fill="black" fill-opacity="0.5"/>
<path d="M1013.5 95L923 245.5L1208.5 254.5L1231.5 200L1292 101.5L1013.5 95Z" fill="black" fill-opacity="0.5"/>
<path d="M784.5 248H665.5L612 340.5L598 371L667 375.5L718 371H849.5L922 244L887 248L826 251.5L784.5 248Z" fill="black" fill-opacity="0.5"/>
<path d="M895 295.5L847.5 370L1134.5 378.5L1207.5 254.5L919.5 245.5L895 295.5Z" fill="black" fill-opacity="0.5"/>
<path d="M1364.5 363C1302.17 368.833 1168.6 380.5 1133 380.5L1205 255.5L1312.5 242L1364.5 363Z" fill="black" fill-opacity="0.5"/>
<path d="M1374.5 481.5L1441.5 457V360L1363.5 363.5L1374.5 481.5Z" fill="black" fill-opacity="0.5"/>
</g>
</svg>
