<svg width="1440" height="719" viewBox="0 0 1440 719" fill="none" xmlns="http://www.w3.org/2000/svg">
<g opacity="0.5">
<path d="M368.5 308.5L594 268L589 163L469.5 180.5L420 241.5L368.5 308.5Z" fill="black" fill-opacity="0.5"/>
<path d="M127.5 319L208.5 193.5L472.5 180L369.5 308.5L127.5 319Z" fill="black" fill-opacity="0.5"/>
<path d="M193 361.5L200.5 466.5L51 479.5H0V324L193 316V361.5Z" fill="black" fill-opacity="0.5"/>
<path d="M246 132L311.5 59.5L110 66.5L1.5 78.5V204.5L205.5 196.5L246 132Z" fill="black" fill-opacity="0.5"/>
<path d="M696.5 148.5L711 161L657.5 259.5L591.5 270L587.5 161L696.5 148.5Z" fill="black" fill-opacity="0.5"/>
<path d="M370.5 308L193 316V390L200 467.5L381 460.5L542 425.5L540 278L370.5 308Z" fill="black" fill-opacity="0.5"/>
<path d="M596.5 367.5L656 260L537 275.5L540.5 422.5L598.5 408L596.5 367.5Z" fill="black" fill-opacity="0.5"/>
<path d="M536.5 424.5L600 406L609 583.5L564.5 599.5L560.5 543L536.5 424.5Z" fill="black" fill-opacity="0.5"/>
<path d="M748.5 97L664.5 243L818.5 248.5L923.5 241.5L973.5 163L1014 93H935L828 89L748.5 97Z" fill="black" fill-opacity="0.5"/>
<path d="M1364.5 357H1441V227L1314 239.5L1364.5 357Z" fill="black" fill-opacity="0.5"/>
<path d="M603.5 483L596.5 367H899.5V487L603.5 483Z" fill="black" fill-opacity="0.5"/>
<path d="M1137.5 434.5C1142.5 427 1139.5 378.5 1139.5 378.5L1365 359L1374 478.5L1139.5 494.5C1139.5 494.5 1132.5 442 1137.5 434.5Z" fill="black" fill-opacity="0.5"/>
<path d="M608.5 582L619 656.5L615.5 660L768 656.5L721 482H602L608.5 582Z" fill="black" fill-opacity="0.5"/>
<path d="M766 659H620L627 717.5H759L766 659Z" fill="black" fill-opacity="0.5"/>
<path d="M936 658.5L944 717.5H758L764.5 658.5H936Z" fill="black" fill-opacity="0.5"/>
<path d="M1029 658.5V717.5H946L939 658.5H1029Z" fill="black" fill-opacity="0.5"/>
<path d="M1393.5 630H1440.5V454.5L1374 477.5L1380 559L1393.5 630Z" fill="black" fill-opacity="0.5"/>
<path d="M1149 656.5V718.5H1396L1391.5 633.5L1149 656.5Z" fill="black" fill-opacity="0.5"/>
<path d="M1139 474L1149.5 717.5H1026.5V568L1009.5 371.5L1139 376.5V474Z" fill="black" fill-opacity="0.5"/>
<path d="M721.5 485L767.5 658H1026V581L1018 485H721.5Z" fill="black" fill-opacity="0.5"/>
<path d="M1392.5 630H1441V718.5H1397.5L1392.5 630Z" fill="black" fill-opacity="0.5"/>
<path d="M160.5 662L0.5 669V718H251L244 662H160.5Z" fill="black" fill-opacity="0.5"/>
</g>
</svg>
