<svg width="1440" height="719" viewBox="0 0 1440 719" fill="none" xmlns="http://www.w3.org/2000/svg">
<g opacity="0.5">
<path d="M367.5 308.5L593 268L588 163L468.5 180.5L419 241.5L367.5 308.5Z" fill="black" fill-opacity="0.5"/>
<path d="M126.5 319L207.5 193.5L471.5 180L368.5 308.5L126.5 319Z" fill="black" fill-opacity="0.5"/>
<path d="M192 361.5L199.5 466.5L50 479.5H-1V324L192 316V361.5Z" fill="black" fill-opacity="0.5"/>
<path d="M245 132L310.5 59.5L109 66.5L0.5 78.5V204.5L204.5 196.5L245 132Z" fill="black" fill-opacity="0.5"/>
<path d="M242.5 131L206.5 194H242.5L332.5 185.5H405H453L467.5 180.5L526 112.5L579 46L540.5 49.5L499 46L453 49.5L370.5 57.5H309.5L242.5 131Z" fill="black" fill-opacity="0.5"/>
<path d="M77.5 199.5L0 205V325.5L127 319L158 277.5L205.5 195.5H115.5L77.5 199.5Z" fill="black" fill-opacity="0.5"/>
<path d="M470.5 178.5L580.5 47L694 146.5L470.5 178.5Z" fill="black" fill-opacity="0.5"/>
<path d="M695.5 148.5L710 161L656.5 259.5L590.5 270L586.5 161L695.5 148.5Z" fill="black" fill-opacity="0.5"/>
<path d="M369.5 308L192 316V390L199 467.5L380 460.5L541 425.5L539 278L369.5 308Z" fill="black" fill-opacity="0.5"/>
<path d="M595.5 367.5L655 260L536 275.5L539.5 422.5L597.5 408L595.5 367.5Z" fill="black" fill-opacity="0.5"/>
<path d="M48 480.5H0.5V667L159.5 663L150 470L48 480.5Z" fill="black" fill-opacity="0.5"/>
<path d="M380 460.5L148 471L159.5 665.5L241 660L392 657L565.5 599.5L559.5 540.5L537.5 424.5L380 460.5Z" fill="black" fill-opacity="0.5"/>
<path d="M535.5 424.5L599 406L608 583.5L563.5 599.5L559.5 543L535.5 424.5Z" fill="black" fill-opacity="0.5"/>
<path d="M393 657.5H241.5L250 718.5H624.5V685L607 584.5L393 657.5Z" fill="black" fill-opacity="0.5"/>
<path d="M747.5 97L663.5 243L817.5 248.5L922.5 241.5L972.5 163L1013 93H934L827 89L747.5 97Z" fill="black" fill-opacity="0.5"/>
<path d="M1012.5 91L922 241.5L1207.5 250.5L1230.5 196L1291 97.5L1012.5 91Z" fill="black" fill-opacity="0.5"/>
<path d="M1440 205L1284 104.5L1240 175.5L1208.5 250.5L1440 227.5V205Z" fill="black" fill-opacity="0.5"/>
<path d="M783.5 244H664.5L611 336.5L597 367L666 371.5L717 367H848.5L921 240L886 244L825 247.5L783.5 244Z" fill="black" fill-opacity="0.5"/>
<path d="M894 291.5L846.5 366L1133.5 374.5L1206.5 250.5L918.5 241.5L894 291.5Z" fill="black" fill-opacity="0.5"/>
<path d="M1363.5 359C1301.17 364.833 1167.6 376.5 1132 376.5L1204 251.5L1311.5 238L1363.5 359Z" fill="black" fill-opacity="0.5"/>
<path d="M1363.5 357H1440V227L1313 239.5L1363.5 357Z" fill="black" fill-opacity="0.5"/>
<path d="M602.5 483L595.5 367H898.5V487L602.5 483Z" fill="black" fill-opacity="0.5"/>
<path d="M1136.5 434.5C1141.5 427 1138.5 378.5 1138.5 378.5L1364 359L1373 478.5L1138.5 494.5C1138.5 494.5 1131.5 442 1136.5 434.5Z" fill="black" fill-opacity="0.5"/>
<path d="M607.5 582L618 656.5L614.5 660L767 656.5L720 482H601L607.5 582Z" fill="black" fill-opacity="0.5"/>
<path d="M765 659H619L626 717.5H758L765 659Z" fill="black" fill-opacity="0.5"/>
<path d="M935 658.5L943 717.5H757L763.5 658.5H935Z" fill="black" fill-opacity="0.5"/>
<path d="M1028 658.5V717.5H945L938 658.5H1028Z" fill="black" fill-opacity="0.5"/>
<path d="M1138 495.5L1148 655L1392.5 632.5L1381.5 575L1373.5 478.5L1138 495.5Z" fill="black" fill-opacity="0.5"/>
<path d="M1392.5 630H1439.5V454.5L1373 477.5L1379 559L1392.5 630Z" fill="black" fill-opacity="0.5"/>
<path d="M1148 656.5V718.5H1395L1390.5 633.5L1148 656.5Z" fill="black" fill-opacity="0.5"/>
<path d="M1138 474L1148.5 717.5H1025.5V568L1008.5 371.5L1138 376.5V474Z" fill="black" fill-opacity="0.5"/>
<path d="M720.5 485L766.5 658H1025V581L1017 485H720.5Z" fill="black" fill-opacity="0.5"/>
<path d="M1391.5 630H1440V718.5H1396.5L1391.5 630Z" fill="black" fill-opacity="0.5"/>
<path d="M1373.5 477.5L1440.5 453V356L1362.5 359.5L1373.5 477.5Z" fill="black" fill-opacity="0.5"/>
<path d="M159.5 662L-0.5 669V718H250L243 662H159.5Z" fill="black" fill-opacity="0.5"/>
</g>
</svg>
