<svg width="1440" height="719" viewBox="0 0 1440 719" fill="none" xmlns="http://www.w3.org/2000/svg">
<g opacity="0.5">
<path d="M127.5 319L208.5 193.5L472.5 180L369.5 308.5L127.5 319Z" fill="black" fill-opacity="0.5"/>
<path d="M370.5 308L193 316V390L200 467.5L381 460.5L542 425.5L540 278L370.5 308Z" fill="black" fill-opacity="0.5"/>
<path d="M536.5 424.5L600 406L609 583.5L564.5 599.5L560.5 543L536.5 424.5Z" fill="black" fill-opacity="0.5"/>
<path d="M748.5 97L664.5 243L818.5 248.5L923.5 241.5L973.5 163L1014 93H935L828 89L748.5 97Z" fill="black" fill-opacity="0.5"/>
<path d="M608.5 582L619 656.5L615.5 660L768 656.5L721 482H602L608.5 582Z" fill="black" fill-opacity="0.5"/>
<path d="M936 658.5L944 717.5H758L764.5 658.5H936Z" fill="black" fill-opacity="0.5"/>
<path d="M1139 474L1149.5 717.5H1026.5V568L1009.5 371.5L1139 376.5V474Z" fill="black" fill-opacity="0.5"/>
<path d="M721.5 485L767.5 658H1026V581L1018 485H721.5Z" fill="black" fill-opacity="0.5"/>
<path d="M1392.5 630H1441V718.5H1397.5L1392.5 630Z" fill="black" fill-opacity="0.5"/>
</g>
</svg>
